<?xml version="1.0" encoding="UTF-8"?>
<svg id="Layer_2" xmlns="http://www.w3.org/2000/svg" version="1.1" viewBox="0 0 881.1 1145">
  <!-- Generator: Adobe Illustrator 30.0.0, SVG Export Plug-In . SVG Version: 2.1.1 Build 123)  -->
  <g id="Layer_1-2">
    <g>
      <rect y="0" width="881.1" height="1"/>
      <rect y="7.4" width="881.1" height="1.1"/>
      <rect y="14.7" width="881.1" height="1.1"/>
      <rect y="22.1" width="881.1" height="1.2"/>
      <rect y="29.5" width="881.1" height="1.2"/>
      <rect y="36.9" width="881.1" height="1.3"/>
      <rect y="44.2" width="881.1" height="1.3"/>
      <rect y="51.6" width="881.1" height="1.4"/>
      <rect y="59" width="881.1" height="1.5"/>
      <rect y="66.3" width="881.1" height="1.5"/>
      <rect y="73.7" width="881.1" height="1.6"/>
      <rect y="81.1" width="881.1" height="1.6"/>
      <rect y="88.4" width="881.1" height="1.7"/>
      <rect y="95.8" width="881.1" height="1.8"/>
      <rect y="103.2" width="881.1" height="1.8"/>
      <rect y="110.5" width="881.1" height="1.9"/>
      <rect y="117.9" width="881.1" height="1.9"/>
      <rect y="125.3" width="881.1" height="2"/>
      <rect y="132.7" width="881.1" height="2"/>
      <rect y="140" width="881.1" height="2.1"/>
      <rect y="147.4" width="881.1" height="2.2"/>
      <rect y="154.8" width="881.1" height="2.2"/>
      <rect y="162.1" width="881.1" height="2.3"/>
      <rect y="169.5" width="881.1" height="2.3"/>
      <rect y="176.9" width="881.1" height="2.4"/>
      <rect y="184.3" width="881.1" height="2.5"/>
      <rect y="191.6" width="881.1" height="2.5"/>
      <rect y="199" width="881.1" height="2.6"/>
      <rect y="206.4" width="881.1" height="2.6"/>
      <rect y="213.7" width="881.1" height="2.7"/>
      <rect y="221.1" width="881.1" height="2.8"/>
      <rect y="228.5" width="881.1" height="2.8"/>
      <rect y="235.8" width="881.1" height="2.9"/>
      <rect y="243.2" width="881.1" height="2.9"/>
      <rect y="250.6" width="881.1" height="3"/>
      <rect y="258" width="881.1" height="3"/>
      <rect y="265.3" width="881.1" height="3.1"/>
      <rect y="272.7" width="881.1" height="3.2"/>
      <rect y="280.1" width="881.1" height="3.2"/>
      <rect y="287.4" width="881.1" height="3.3"/>
      <rect y="294.8" width="881.1" height="3.3"/>
      <rect y="302.2" width="881.1" height="3.4"/>
      <rect y="309.6" width="881.1" height="3.5"/>
      <rect y="316.9" width="881.1" height="3.5"/>
      <rect y="324.3" width="881.1" height="3.6"/>
      <rect y="331.7" width="881.1" height="3.6"/>
      <rect y="339" width="881.1" height="3.7"/>
      <rect y="346.4" width="881.1" height="3.8"/>
      <rect y="353.8" width="881.1" height="3.8"/>
      <rect y="361.1" width="881.1" height="3.9"/>
      <rect y="368.5" width="881.1" height="3.9"/>
      <rect y="375.9" width="881.1" height="4"/>
      <rect y="383.3" width="881.1" height="4"/>
      <rect y="390.6" width="881.1" height="4.1"/>
      <rect y="398" width="881.1" height="4.2"/>
      <rect y="405.4" width="881.1" height="4.2"/>
      <rect y="412.7" width="881.1" height="4.3"/>
      <rect y="420.1" width="881.1" height="4.3"/>
      <rect y="427.5" width="881.1" height="4.4"/>
      <rect y="434.8" width="881.1" height="4.5"/>
      <rect y="442.2" width="881.1" height="4.5"/>
      <rect y="449.6" width="881.1" height="4.6"/>
      <rect y="457" width="881.1" height="4.6"/>
      <rect y="464.3" width="881.1" height="4.7"/>
      <rect y="471.7" width="881.1" height="4.7"/>
      <rect y="479.1" width="881.1" height="4.8"/>
      <rect y="486.4" width="881.1" height="4.9"/>
      <rect y="493.8" width="881.1" height="4.9"/>
      <rect y="501.2" width="881.1" height="5"/>
      <rect y="508.5" width="881.1" height="5"/>
      <rect y="515.9" width="881.1" height="5.1"/>
      <rect y="523.3" width="881.1" height="5.1"/>
      <rect y="530.7" width="881.1" height="5.2"/>
      <rect y="538" width="881.1" height="5.3"/>
      <rect y="545.4" width="881.1" height="5.3"/>
      <rect y="552.8" width="881.1" height="5.4"/>
      <rect y="560.1" width="881.1" height="5.4"/>
      <rect y="567.5" width="881.1" height="5.5"/>
      <rect y="574.9" width="881.1" height="5.6"/>
      <rect y="582.3" width="881.1" height="5.6"/>
      <rect y="589.6" width="881.1" height="5.7"/>
      <rect y="597" width="881.1" height="5.7"/>
      <rect y="604.4" width="881.1" height="5.8"/>
      <rect y="611.7" width="881.1" height="5.8"/>
      <rect y="619.1" width="881.1" height="5.9"/>
      <rect y="626.5" width="881.1" height="6"/>
      <rect y="633.8" width="881.1" height="6"/>
      <rect y="641.2" width="881.1" height="6.1"/>
      <rect y="648.6" width="881.1" height="6.1"/>
      <rect y="656" width="881.1" height="6.2"/>
      <rect y="663.3" width="881.1" height="6.3"/>
      <rect y="670.7" width="881.1" height="6.3"/>
      <rect y="678.1" width="881.1" height="6.4"/>
      <rect y="685.4" width="881.1" height="6.4"/>
      <rect y="692.8" width="881.1" height="6.5"/>
      <rect y="700.2" width="881.1" height="6.6"/>
      <rect y="707.5" width="881.1" height="6.6"/>
      <rect y="714.9" width="881.1" height="6.7"/>
      <rect y="722.3" width="881.1" height="6.7"/>
      <rect y="729.7" width="881.1" height="6.8"/>
      <rect y="737" width="881.1" height="6.8"/>
      <rect y="744.4" width="881.1" height="6.9"/>
      <rect y="751.8" width="881.1" height="7"/>
      <rect y="759.1" width="881.1" height="7"/>
      <rect y="766.5" width="881.1" height="7.1"/>
      <rect y="773.9" width="881.1" height="7.1"/>
      <rect y="781.2" width="881.1" height="7.2"/>
      <rect y="788.6" width="881.1" height="7.2"/>
      <rect y="796" width="881.1" height="7.3"/>
      <rect y="803.4" width="881.1" height="7.4"/>
      <rect y="810.7" width="881.1" height="7.4"/>
      <rect y="818.1" width="881.1" height="7.5"/>
      <rect y="825.5" width="881.1" height="7.6"/>
      <rect y="832.8" width="881.1" height="7.6"/>
      <rect y="840.2" width="881.1" height="7.7"/>
      <rect y="847.6" width="881.1" height="7.7"/>
      <rect y="855" width="881.1" height="7.8"/>
      <rect y="862.3" width="881.1" height="7.8"/>
      <rect y="869.7" width="881.1" height="7.9"/>
      <rect y="877.1" width="881.1" height="7.9"/>
      <rect y="884.4" width="881.1" height="8"/>
      <rect y="891.8" width="881.1" height="8.1"/>
      <rect y="899.2" width="881.1" height="8.1"/>
      <rect y="906.5" width="881.1" height="8.2"/>
      <rect y="913.9" width="881.1" height="8.2"/>
      <rect y="921.3" width="881.1" height="8.3"/>
      <rect y="928.7" width="881.1" height="8.4"/>
      <rect y="936" width="881.1" height="8.4"/>
      <rect y="943.4" width="881.1" height="8.5"/>
      <rect y="950.8" width="881.1" height="8.5"/>
      <rect y="958.1" width="881.1" height="8.6"/>
      <rect y="965.5" width="881.1" height="8.7"/>
      <rect y="972.9" width="881.1" height="8.7"/>
      <rect y="980.2" width="881.1" height="8.8"/>
      <rect y="987.6" width="881.1" height="8.8"/>
      <rect y="995" width="881.1" height="8.9"/>
      <rect y="1002.4" width="881.1" height="8.9"/>
      <rect y="1009.7" width="881.1" height="9"/>
      <rect y="1017.1" width="881.1" height="9.1"/>
      <rect y="1024.5" width="881.1" height="9.1"/>
      <rect y="1031.8" width="881.1" height="9.2"/>
      <rect y="1039.2" width="881.1" height="9.2"/>
      <rect y="1046.6" width="881.1" height="9.3"/>
      <rect y="1053.9" width="881.1" height="9.4"/>
      <rect y="1061.3" width="881.1" height="9.4"/>
      <rect y="1068.7" width="881.1" height="9.5"/>
      <rect y="1076.1" width="881.1" height="9.5"/>
      <rect y="1083.4" width="881.1" height="9.6"/>
      <rect y="1090.8" width="881.1" height="9.7"/>
      <rect y="1098.2" width="881.1" height="9.7"/>
      <rect y="1105.5" width="881.1" height="9.8"/>
      <rect y="1112.9" width="881.1" height="9.8"/>
      <rect y="1120.3" width="881.1" height="9.9"/>
      <rect y="1127.7" width="881.1" height="9.9"/>
      <rect y="1135" width="881.1" height="10"/>
    </g>
  </g>
</svg>